<svg width="277" height="347" viewBox="0 0 277 347" fill="none" xmlns="http://www.w3.org/2000/svg">
<path d="M159.531 91.5552C159.531 91.7091 159.377 91.8631 159.377 92.017C159.377 91.7091 159.531 91.7091 159.531 91.5552Z" fill="white"/>
<path d="M136.438 249.815H36.5251C16.9736 249.815 0.962891 233.804 0.962891 214.253V75.6985C0.962891 56.1469 16.9736 40.1362 36.5251 40.1362H202.328L157.837 156.214L155.99 188.851L143.982 225.953L136.438 249.815Z" fill="white"/>
<path d="M36.5256 50.7583C22.8241 50.7583 11.7397 61.9966 11.7397 75.6981V214.252C11.7397 227.954 22.8241 239.038 36.5256 239.038H128.433L133.667 222.719L145.368 186.849L147.215 153.904L186.626 50.9122H36.5256V50.7583Z" fill="white"/>
<path d="M245.743 0.878906C243.741 0.878906 241.586 0.878906 239.585 0.878906C224.498 4.72763 212.644 13.5027 202.637 24.5871C202.637 24.5871 181.238 51.5282 167.229 76.16C164.611 81.2404 161.994 86.3207 159.531 91.401C159.531 91.5549 159.377 91.7089 159.377 91.8628C149.986 111.568 142.443 132.044 137.67 153.75C136.593 158.369 137.67 163.603 138.594 168.53C139.364 172.686 141.211 176.843 142.443 180.999C142.597 181.615 142.443 182.539 142.289 184.848C139.056 179.152 136.747 174.841 133.668 169.453C131.05 176.843 126.586 182.385 129.973 190.082C132.744 196.24 134.437 202.86 135.361 209.788C132.436 204.708 129.665 199.627 126.586 194.547C122.275 202.09 122.275 203.014 126.432 225.953C126.432 225.953 134.745 248.429 135.515 261.823C135.977 264.902 136.131 269.212 136.131 275.216C136.593 293.382 137.978 311.548 139.364 329.56C139.826 335.102 141.827 340.645 143.212 346.187C143.828 346.033 144.444 346.033 145.214 345.879C132.744 289.687 143.212 235.343 159.993 182.231C176.927 128.811 202.791 79.8548 241.74 38.5964C198.018 105.256 166.151 177.459 150.602 256.434C159.685 241.963 172.001 231.649 186.934 224.105C187.858 223.643 188.781 223.028 189.243 222.258C199.712 208.094 210.18 193.931 220.649 179.614C220.341 179.152 220.033 178.69 219.725 178.228C208.949 180.999 198.018 183.77 187.242 186.542C194.939 181.615 202.483 176.227 210.95 174.072C225.729 170.223 233.427 159.908 240.354 147.592C256.365 118.65 271.298 89.3997 275.917 55.9927C279.611 29.3595 268.989 9.34611 245.743 0.878906Z" fill="white"/>
</svg>
