<svg width="282" height="301" viewBox="0 0 282 301" fill="none" xmlns="http://www.w3.org/2000/svg">
<path d="M281.109 31.6502C276.642 30.1431 271.809 31.7938 268.953 35.6693C268.514 36.2434 268.147 36.9611 267.561 37.32C260.971 41.1237 254.306 44.784 247.716 48.5877C245.006 50.1667 243.248 49.9514 240.905 47.6547C236.584 43.4921 234.68 43.7792 229.407 46.5064C223.256 49.6643 216.958 52.4633 210.66 55.2623C203.556 58.4201 196.16 60.932 189.423 64.5923C180.781 69.2573 172.726 74.9988 164.304 80.0227C161.668 81.6016 158.519 82.391 155.589 83.4676C151.781 84.8312 147.607 85.6924 144.092 87.5584C140.064 89.7115 136.183 91.0751 131.569 90.501C129.958 90.2856 127.907 90.2857 126.589 91.0751C121.683 93.9459 116.117 93.4435 110.918 94.8789C109.746 95.166 108.281 94.52 106.524 94.233C106.377 94.52 105.865 95.3813 105.279 96.6013C101.031 94.3765 94.9529 95.9554 92.8292 89.568C97.4428 87.4149 101.91 85.0465 106.67 83.2523C116.117 79.6638 120.218 72.0563 121.536 63.0851C122.928 53.8987 123.221 44.4969 123.733 35.2387C123.806 34.2339 122.415 32.655 121.243 32.0808C120.218 31.5067 118.607 31.8655 117.289 31.9373C110.991 32.1526 110.112 31.7938 107.769 25.9804C106.743 23.4685 106.524 20.6695 105.938 18.0141C105.205 14.7845 104.62 11.4831 103.668 8.25346C103.448 7.53577 102.203 6.88984 101.251 6.7463C98.2484 6.17215 95.6852 5.38269 95.0994 1.866C95.0261 1.22008 94.2206 0.645923 93.7812 0C90.9251 3.08608 90.3393 6.38746 90.6322 10.0477C90.7787 11.3395 90.8519 12.7749 90.4125 13.9232C89.3872 16.6505 90.1196 18.5882 92.0236 20.7413C95.9049 25.2628 99.2736 30.2148 99.3468 36.6023C99.3468 40.2625 98.9074 44.0663 101.983 47.0806C102.349 47.4394 102.056 48.6595 101.837 49.449C100.665 53.4681 99.4201 57.4154 97.8822 62.3674C91.0716 62.7263 83.7484 63.444 76.3519 63.5157C69.5413 63.5875 63.2433 64.1617 58.5564 69.8314C58.1903 70.262 57.3847 70.4056 56.9453 70.5491C55.9933 67.0324 54.968 63.731 54.1625 60.4297C53.2837 56.9847 51.8923 53.3963 52.0387 49.9514C52.2584 45.8605 50.3544 43.6357 47.9377 40.7649C45.5943 37.9659 43.5438 37.9659 40.8342 38.6836C35.2685 40.0472 29.7761 41.6261 24.2837 43.2051C19.5968 44.5687 17.1802 48.0136 16.4478 52.6068C14.6903 63.6593 20.7685 70.9797 28.7509 77.3672C29.9226 78.3002 31.1675 79.1614 31.8999 79.6638C30.5817 81.458 28.4579 83.1087 28.6776 84.257C30.069 90.501 26.1877 94.0176 22.3064 97.7496C21.2812 98.6826 20.4756 99.9027 19.8898 101.195C18.4983 104.137 17.3999 107.295 16.0084 110.237C15.0564 112.319 13.2988 114.185 12.9327 116.266C11.1751 127.462 5.17005 136.936 0.849347 147.127C-0.175905 149.567 -0.175906 152.797 0.336721 155.452C0.995812 159.328 2.31399 163.131 3.77864 166.792C4.3645 168.299 5.82915 170.237 7.22056 170.452C10.6625 171.026 13.7382 171.815 15.9352 174.83C16.3014 175.404 17.6928 175.404 18.6448 175.332C18.9377 175.332 19.5968 174.04 19.3771 173.61C16.6675 167.581 21.7206 162.055 20.6953 156.098C20.6221 155.524 21.2079 154.591 21.7206 154.088C27.5059 148.275 33.218 142.39 39.1499 136.72C40.3948 135.572 42.0792 134.28 43.6903 134.137C47.2054 133.85 50.7938 133.921 54.2357 134.495C61.8519 135.787 68.6625 140.237 76.718 140.022C77.4504 140.022 78.915 141.601 78.8418 142.462C78.6221 148.419 80.0867 154.734 75.8393 159.902C80.16 163.275 82.2837 162.773 83.309 158.108C83.968 155.165 83.5287 152.007 83.4554 148.921C83.4554 147.27 83.2357 145.62 83.0893 143.467C85.3595 146.553 87.117 148.993 88.8746 151.361C89.314 151.935 89.8999 152.725 90.4125 152.725C94.1473 152.725 96.2711 155.165 96.1979 158.036C95.9049 164.782 94.8797 171.528 93.9276 178.203C93.5615 181.145 92.3898 184.016 92.0968 186.959C91.511 193.633 90.9251 200.308 90.8519 206.982C90.6322 221.121 90.9251 235.188 90.7054 249.326C90.559 256.288 90.3393 263.393 89.0943 270.283C88.1423 275.235 85.213 279.756 83.6019 284.637C81.9908 289.517 79.3544 293.392 74.7408 295.976C72.5438 297.196 72.4706 298.56 74.814 299.995C75.1802 300.211 75.6928 300.641 76.059 301H85.213C85.4327 300.354 85.7256 299.78 86.0918 299.421C91.9504 294.254 97.8822 289.23 103.96 284.278C107.549 281.335 108.135 278.895 105.498 275.02C101.764 269.493 103.155 263.824 110.918 262.675C113.7 262.245 114.799 261.025 114.286 258.369C113.188 252.843 114.506 247.604 116.923 242.723C119.852 236.838 122.415 231.025 121.097 224.207C120.877 223.202 121.317 222.054 121.463 221.049C123.806 205.403 126.296 189.83 128.347 174.184C129.592 164.639 130.178 155.237 133.62 145.835C136.769 137.151 141.236 130.692 148.705 125.381C154.857 120.931 160.276 115.692 167.233 112.175C173.092 109.233 178.218 105.07 183.784 101.625C188.178 98.898 192.572 95.9554 197.258 93.8741C209.488 88.3479 223.036 85.0465 232.556 74.8553C237.39 69.6879 245.592 69.1137 249.473 62.6545C249.766 62.2239 250.498 61.9368 251.084 61.865C254.526 61.2909 257.968 60.2861 261.337 60.4297C264.998 60.5732 266.976 59.3531 267.854 56.1953C268.294 54.6164 267.928 52.7504 268.587 51.2432C269.612 48.9466 270.857 46.65 272.468 44.7122C275.471 41.1955 278.913 38.0377 281.915 34.521C282.208 34.0904 281.695 31.7938 281.109 31.6502Z" fill="white"/>
</svg>
